<?xml version="1.0" standalone="no"?><!DOCTYPE svg PUBLIC "-//W3C//DTD SVG 1.1//EN" "http://www.w3.org/Graphics/SVG/1.1/DTD/svg11.dtd"><svg height="1024" node-id="1" sillyvg="true" template-height="1024" template-width="1024" version="1.1" viewBox="0 0 1024 1024" width="1024" xmlns="http://www.w3.org/2000/svg" xmlns:xlink="http://www.w3.org/1999/xlink"><defs node-id="28"></defs><g node-id="131"><path d="M 643.20 305.00 L 633.20 305.20 L 623.40 305.70 L 613.80 306.70 L 604.30 308.10 L 595.00 309.90 L 583.30 312.70 L 572.10 316.10 L 561.00 320.10 L 550.30 324.60 L 539.80 329.70 L 529.70 335.30 L 519.90 341.40 L 510.40 347.90 L 501.30 355.00 L 492.60 362.50 L 484.30 370.50 L 476.40 378.90 L 469.00 387.70 L 462.00 396.80 L 455.50 406.30 L 449.40 416.20 L 443.90 426.40 L 439.00 436.90 L 434.50 447.80 L 430.60 458.90 L 427.90 468.00 L 425.70 477.20 L 423.70 486.50 L 422.20 496.10 L 421.10 505.80 L 415.40 500.20 L 409.40 494.90 L 403.20 490.00 L 396.70 485.30 L 389.90 481.00 L 382.90 477.00 L 375.80 473.40 L 368.40 470.20 L 360.70 467.30 L 352.90 464.80 L 344.90 462.80 L 336.80 461.20 L 328.60 460.00 L 320.10 459.20 L 311.50 458.90 L 302.90 459.10 L 294.50 459.70 L 286.30 460.80 L 278.30 462.20 L 270.40 464.10 L 262.60 466.40 L 255.00 469.10 L 247.60 472.20 L 240.40 475.60 L 233.40 479.40 L 224.90 484.60 L 216.90 490.40 L 209.20 496.60 L 202.00 503.30 L 195.20 510.40 L 188.80 518.00 L 183.00 525.90 L 177.60 534.30 L 173.70 541.20 L 170.20 548.40 L 167.00 555.70 L 164.20 563.20 L 161.80 571.00 L 159.80 578.90 L 158.20 586.90 L 157.00 595.10 L 156.30 603.40 L 156.00 612.00 L 154.80 764.10 L 860.90 769.40 L 862.70 528.10 L 862.50 517.60 L 861.90 507.20 L 860.80 497.10 L 859.30 487.10 L 857.30 477.30 L 854.90 467.50 L 852.00 457.90 L 848.70 448.60 L 845.10 439.50 L 841.00 430.50 L 836.60 421.80 L 831.80 413.30 L 826.60 405.00 L 821.10 397.00 L 815.20 389.20 L 809.00 381.70 L 802.50 374.50 L 795.80 367.60 L 788.70 361.00 L 781.20 354.70 L 773.60 348.70 L 765.60 343.10 L 757.50 337.80 L 749.00 332.80 L 740.30 328.20 L 731.50 324.00 L 722.40 320.20 L 713.10 316.80 L 703.60 313.80 L 693.90 311.20 L 684.10 309.10 L 674.20 307.40 L 664.00 306.10 L 653.70 305.30 L 643.20 305.00 Z" fill="#b3b3b3" fill-opacity="0.1" fill-rule="nonzero" group-id="1" node-id="34" stroke="none" target-height="464.40002" target-width="707.9" target-x="154.8" target-y="305"></path></g><g node-id="132"><path d="M 275.40 290.90 L 271.60 291.20 L 268.10 292.10 L 264.80 293.40 L 261.90 295.20 L 262.40 290.70 L 262.20 287.60 L 260.70 281.90 L 257.80 276.80 L 253.80 272.70 L 248.80 269.70 L 246.00 268.80 L 239.90 267.90 L 233.80 268.70 L 228.40 270.90 L 223.90 274.40 L 220.30 278.90 L 218.00 284.30 L 217.40 287.20 L 217.10 291.80 L 211.30 290.40 L 206.20 290.50 L 203.30 291.00 L 197.90 293.20 L 195.50 294.90 L 191.40 298.90 L 188.40 303.90 L 187.40 306.70 L 186.50 312.80 L 187.20 318.80 L 189.40 324.10 L 191.50 327.30 L 194.10 330.00 L 197.20 332.20 L 199.70 333.60 L 205.20 335.30 L 208.30 335.60 L 275.20 336.00 L 281.20 335.30 L 286.60 333.10 L 289.00 331.40 L 293.10 327.40 L 296.10 322.40 L 297.70 316.70 L 298.00 313.50 L 297.20 307.40 L 294.90 302.10 L 293.20 299.60 L 289.20 295.60 L 284.20 292.70 L 281.40 291.70 L 275.40 290.90 Z" fill="#b3b3b3" fill-opacity="0.3" fill-rule="nonzero" group-id="2" node-id="39" stroke="none" target-height="68.100006" target-width="111.5" target-x="186.5" target-y="267.9"></path></g><g node-id="133"><path d="M 844.60 241.10 L 840.80 241.40 L 837.30 242.30 L 834.00 243.60 L 831.10 245.40 L 831.50 240.90 L 831.30 237.80 L 829.80 232.10 L 826.90 227.10 L 822.90 223.00 L 817.90 220.00 L 815.10 219.00 L 809.00 218.10 L 802.90 218.90 L 797.50 221.10 L 793.00 224.60 L 789.40 229.10 L 787.10 234.50 L 786.50 237.40 L 786.20 241.90 L 780.40 240.50 L 775.30 240.60 L 772.30 241.10 L 767.00 243.30 L 764.50 245.00 L 760.50 249.00 L 757.50 254.00 L 756.50 256.80 L 755.60 262.90 L 756.30 268.90 L 758.50 274.20 L 760.60 277.30 L 763.20 280.00 L 766.30 282.30 L 768.80 283.70 L 774.30 285.40 L 777.40 285.70 L 844.30 286.20 L 850.30 285.40 L 855.70 283.20 L 858.10 281.60 L 862.20 277.60 L 865.20 272.60 L 866.80 266.90 L 867.10 263.70 L 866.40 257.60 L 865.40 254.90 L 864.10 252.30 L 862.50 249.90 L 858.50 245.80 L 853.40 242.90 L 850.70 241.90 L 844.60 241.10 Z" fill="#b3b3b3" fill-opacity="0.3" fill-rule="nonzero" group-id="3" node-id="44" stroke="none" target-height="68.100006" target-width="111.5" target-x="755.6" target-y="218.1"></path></g><g node-id="134"><g node-id="136"><path d="M 695.40 696.00 L 693.80 696.20 L 691.50 697.60 L 690.10 700.00 L 689.90 701.50 L 690.10 703.20 L 690.70 704.50 L 691.70 705.70 L 692.90 706.50 L 692.10 804.10 L 697.40 804.10 L 698.20 706.20 L 700.10 704.30 L 700.90 701.60 L 700.70 700.00 L 699.30 697.70 L 696.90 696.30 L 695.40 696.00 Z" fill="#b3b3b3" fill-opacity="0.1" fill-rule="nonzero" group-id="4,6" node-id="51" stroke="none" target-height="108.099976" target-width="11" target-x="689.9" target-y="696"></path><path d="M 808.50 702.30 L 807.80 699.70 L 806.90 698.50 L 804.50 697.10 L 803.00 696.80 L 801.50 697.00 L 799.00 698.40 L 797.60 700.80 L 797.40 702.30 L 798.20 705.20 L 800.30 707.10 L 799.50 804.90 L 804.80 804.90 L 805.60 707.10 L 807.60 705.20 L 808.50 702.30 Z" fill="#b3b3b3" fill-opacity="0.1" fill-rule="nonzero" group-id="4,6" node-id="53" stroke="none" target-height="108.10004" target-width="11.099976" target-x="797.4" target-y="696.8"></path></g><g node-id="137"><path d="M 677.20 739.20 L 677.40 714.40 L 815.90 715.40 L 815.70 740.20 Z" fill="#b3b3b3" fill-opacity="0.1" fill-rule="nonzero" group-id="4,7" node-id="58" stroke="none" target-height="25.799988" target-width="138.70001" target-x="677.2" target-y="714.4"></path></g><g node-id="138"><path d="M 693.10 714.50 L 678.30 739.20 L 677.20 739.20 L 677.40 714.50 Z" fill="#b3b3b3" fill-opacity="0.1" fill-rule="nonzero" group-id="4,8" node-id="63" stroke="none" target-height="24.700012" target-width="15.899963" target-x="677.2" target-y="714.5"></path></g><g node-id="139"><path d="M 728.10 714.80 L 713.20 739.50 L 694.50 739.40 L 709.00 714.60 Z" fill="#b3b3b3" fill-opacity="0.1" fill-rule="nonzero" group-id="4,9" node-id="68" stroke="none" target-height="24.900024" target-width="33.599976" target-x="694.5" target-y="714.6"></path></g><g node-id="140"><path d="M 763.00 715.10 L 748.20 739.70 L 729.40 739.50 L 744.00 714.90 Z" fill="#b3b3b3" fill-opacity="0.1" fill-rule="nonzero" group-id="4,10" node-id="73" stroke="none" target-height="24.799988" target-width="33.599976" target-x="729.4" target-y="714.9"></path></g><g node-id="141"><path d="M 798.00 715.40 L 783.30 740.00 L 764.40 739.80 L 779.10 715.20 Z" fill="#b3b3b3" fill-opacity="0.1" fill-rule="nonzero" group-id="4,11" node-id="78" stroke="none" target-height="24.799988" target-width="33.599976" target-x="764.4" target-y="715.2"></path></g><g node-id="142"><path d="M 815.80 715.40 L 815.70 740.30 L 799.30 740.10 L 814.00 715.40 Z" fill="#b3b3b3" fill-opacity="0.1" fill-rule="nonzero" group-id="4,12" node-id="83" stroke="none" target-height="24.899963" target-width="16.5" target-x="799.3" target-y="715.4"></path></g><g node-id="143"><path d="M 676.90 777.50 L 677.10 752.70 L 815.60 753.70 L 815.40 778.50 Z" fill="#b3b3b3" fill-opacity="0.1" fill-rule="nonzero" group-id="4,13" node-id="88" stroke="none" target-height="25.799988" target-width="138.69995" target-x="676.9" target-y="752.7"></path></g><g node-id="144"><path d="M 692.80 752.70 L 678.00 777.50 L 676.90 777.50 L 677.10 752.70 Z" fill="#b3b3b3" fill-opacity="0.1" fill-rule="nonzero" group-id="4,14" node-id="93" stroke="none" target-height="24.799988" target-width="15.899963" target-x="676.9" target-y="752.7"></path></g><g node-id="145"><path d="M 727.80 753.00 L 712.90 777.80 L 694.20 777.60 L 708.70 752.90 Z" fill="#b3b3b3" fill-opacity="0.1" fill-rule="nonzero" group-id="4,15" node-id="98" stroke="none" target-height="24.899963" target-width="33.599976" target-x="694.2" target-y="752.9"></path></g><g node-id="146"><path d="M 762.70 753.30 L 747.90 777.90 L 729.10 777.80 L 743.70 753.20 Z" fill="#b3b3b3" fill-opacity="0.1" fill-rule="nonzero" group-id="4,16" node-id="103" stroke="none" target-height="24.700012" target-width="33.600037" target-x="729.1" target-y="753.2"></path></g><g node-id="147"><path d="M 797.70 753.60 L 783.10 778.20 L 764.10 778.10 L 778.80 753.50 Z" fill="#b3b3b3" fill-opacity="0.1" fill-rule="nonzero" group-id="4,17" node-id="108" stroke="none" target-height="24.700012" target-width="33.600037" target-x="764.1" target-y="753.5"></path></g><g node-id="148"><path d="M 815.50 753.80 L 815.40 778.50 L 799.00 778.40 L 813.70 753.80 Z" fill="#b3b3b3" fill-opacity="0.1" fill-rule="nonzero" group-id="4,18" node-id="113" stroke="none" target-height="24.700012" target-width="16.5" target-x="799" target-y="753.8"></path></g><g node-id="149"><path d="M 815.70 740.30 L 815.80 715.40 L 677.50 714.80 L 677.70 714.60 L 677.50 739.40 L 813.30 740.30 L 677.00 739.70 L 677.30 714.50 L 815.80 715.70 L 815.70 740.30 Z" fill="#b3b3b3" fill-opacity="0.1" fill-rule="nonzero" group-id="4,19" node-id="118" stroke="none" target-height="25.799988" target-width="138.79999" target-x="677" target-y="714.5"></path></g><path d="M 815.40 778.50 L 815.50 753.60 L 677.40 752.90 L 677.20 777.70 L 813.00 778.60 L 676.60 778.00 L 676.90 753.00 L 815.40 754.20 L 815.40 778.50 Z" fill="#b3b3b3" fill-opacity="0.1" fill-rule="nonzero" group-id="4,20" node-id="123" stroke="none" target-height="25.699951" target-width="138.90002" target-x="676.6" target-y="752.9"></path></g><path d="M 344.50 608.90 L 263.40 710.10 L 265.40 458.10 L 265.60 455.50 L 266.30 453.10 L 267.40 450.90 L 268.80 448.90 L 270.50 447.20 L 272.60 445.80 L 274.80 444.80 L 277.20 444.20 L 279.80 444.00 L 415.50 445.10 L 371.70 540.00 L 462.90 537.70 L 444.30 602.50 L 415.00 639.20 L 363.60 605.80 L 361.30 604.70 L 356.80 603.60 L 352.20 603.90 L 348.00 605.70 L 344.50 608.90 Z M 649.80 461.10 L 648.00 711.00 L 495.40 574.40 L 520.10 527.20 L 445.90 515.30 L 466.70 445.60 L 638.20 447.00 L 640.60 447.70 L 642.80 448.70 L 644.80 450.10 L 646.50 451.80 L 647.90 453.90 L 649.00 456.10 L 649.60 458.50 L 649.80 461.10 Z M 610.00 530.70 L 609.80 526.80 L 609.00 523.10 L 607.80 519.60 L 606.20 516.20 L 604.20 513.20 L 601.80 510.40 L 599.00 508.00 L 596.00 505.90 L 592.70 504.30 L 589.20 503.00 L 585.50 502.30 L 581.60 502.00 L 577.70 502.30 L 574.00 503.00 L 570.50 504.20 L 567.20 505.80 L 564.20 507.80 L 561.40 510.20 L 559.00 512.90 L 556.90 515.90 L 555.30 519.20 L 554.00 522.60 L 553.30 526.30 L 553.00 530.20 L 553.20 534.10 L 553.90 537.80 L 555.10 541.40 L 556.80 544.70 L 558.80 547.70 L 561.20 550.50 L 563.90 552.90 L 566.90 555.00 L 570.20 556.60 L 573.70 557.90 L 577.40 558.60 L 581.30 558.90 L 585.20 558.70 L 588.90 558.00 L 592.40 556.80 L 595.70 555.20 L 598.70 553.20 L 601.50 550.80 L 603.90 548.10 L 606.00 545.10 L 607.70 541.80 L 608.90 538.30 L 609.70 534.60 L 610.00 530.70 Z M 424.30 671.00 L 422.00 671.90 L 419.70 672.50 L 417.20 672.60 L 414.70 672.20 L 412.30 671.40 L 410.00 670.20 L 358.60 636.70 L 284.70 729.00 L 407.40 729.90 L 424.30 671.00 Z M 480.70 602.40 L 413.80 730.00 L 628.30 731.60 L 482.10 600.80 L 480.70 602.40 Z" fill="#b3b3b3" fill-opacity="0.35" fill-rule="nonzero" group-id="5" node-id="129" stroke="none" target-height="287.59998" target-width="386.4" target-x="263.4" target-y="444"></path></svg>